#!OML:ASF Y:\EmotionMaleHayes\Project 1\Capture day 1\Session 1\Male1.ASF
:FULLY-SPECIFIED
:DEGREES
1
root -28.0267 17.1569 0.632842 19.0027 82.5606 18.1421
lowerback 4.6337 1.93447 -5.41537
upperback 1.24175 2.34028 -0.239138
thorax -1.5222 1.19239 2.64688
lowerneck -20.4422 4.09467 4.33309
upperneck 25.6389 5.39271 -2.51807
head 12.0181 2.60869 -0.770226
rclavicle 1.4474e-015 9.39258e-015
rhumerus -34.4216 2.84997 -85.9949
rradius 32.5595
rwrist 4.52564
rhand -9.04348 -31.8213
rfingers 7.12502
rthumb 16.9046 -61.1056
lclavicle 1.4474e-015 9.39258e-015
lhumerus -32.7924 -15.5467 94.4505
lradius 29.6485
lwrist -13.0297
lhand -9.40941 -26.0415
lfingers 7.12502
lthumb 16.5523 3.27258
rfemur 10.5393 -2.43325 8.93909
rtibia 2.98848
rfoot -17.353 -7.30363
rtoes 1.93926
lfemur 12.1276 1.87784 -12.5501
ltibia -0.0934226
lfoot -14.0789 14.8386
ltoes -11.0283
2
root -28.0271 17.1566 0.638077 19.1222 82.5248 18.2939
lowerback 4.71141 1.9408 -5.54075
upperback 1.25121 2.33885 -0.198594
thorax -1.56222 1.19295 2.75648
lowerneck -20.4624 4.08564 4.24244
upperneck 25.5884 5.39617 -2.48807
head 11.9984 2.60429 -0.743426
rclavicle 3.46631e-014 -1.76918e-014
rhumerus -34.5223 2.84902 -86.0423
rradius 32.7434
rwrist 4.38901
rhand -9.07606 -31.7615
rfingers 7.12502
rthumb 16.8732 -61.0485
lclavicle 3.46631e-014 -1.76918e-014
lhumerus -32.9453 -15.9575 94.5334
lradius 29.985
lwrist -12.7916
lhand -8.81824 -25.9284
lfingers 7.12502
lthumb 17.1214 3.33717
rfemur 10.5348 -2.2729 8.94958
rtibia 3.09922
rfoot -17.6641 -7.19778
rtoes 2.89947
lfemur 12.2057 2.10953 -12.465
ltibia -0.164454
lfoot -13.7693 14.7629
ltoes -12.0576
3
root -28.0281 17.1543 0.642825 19.0446 82.4879 18.1738
lowerback 4.74537 1.93634 -5.56606
upperback 1.21596 2.32794 -0.192228
thorax -1.61791 1.1895 2.77608
lowerneck -20.4939 4.05492 4.19955
upperneck 25.7581 5.3964 -2.54629
head 12.0715 2.59381 -0.756299
rclavicle -1.33217e-014 -1.63997e-015
rhumerus -34.6952 2.91702 -86.159
rradius 32.9762
rwrist 4.13442
rhand -9.06867 -31.4097
rfingers 7.12502
rthumb 16.8803 -60.696
lclavicle -1.33217e-014 -1.63997e-015
lhumerus -33.103 -16.1846 94.464
lradius 30.371
lwrist -12.6888
lhand -8.2274 -25.929
lfingers 7.12502
lthumb 17.69 3.28634
rfemur 10.4513 -2.11284 9.01735
rtibia 3.22321
rfoot -17.9424 -7.25247
rtoes 2.80303
lfemur 12.2113 2.33601 -12.3498
ltibia -0.238724
lfoot -13.5751 14.6911
ltoes -13.4714
4
root -28.0262 17.1519 0.647664 18.7958 82.4006 17.8324
lowerback 4.67816 1.95262 -5.51941
upperback 1.18942 2.3543 -0.245732
thorax -1.60609 1.20256 2.69468
lowerneck -20.515 4.03911 4.19336
upperneck 25.7648 5.34137 -2.43686
head 12.0723 2.58259 -0.723132
rclavicle -1.77974e-014 -6.16232e-015
rhumerus -34.9921 2.90763 -86.3552
rradius 33.385
rwrist 3.87177
rhand -9.06458 -31.4575
rfingers 7.12502
rthumb 16.8843 -60.7435
lclavicle -1.77974e-014 -6.16232e-015
lhumerus -33.2019 -16.4053 94.2501
lradius 30.7617
lwrist -12.5949
lhand -8.2077 -26.1265
lfingers 7.12502
lthumb 17.709 3.08709
rfemur 10.2418 -2.17192 9.0295
rtibia 3.47053
rfoot -18.137 -7.15394
rtoes 1.97918
lfemur 12.1987 2.4833 -12.2454
ltibia -0.33318
lfoot -13.8015 14.4979
ltoes -12.8432
5
root -28.0236 17.1483 0.652955 19.4274 82.3161 18.3842
lowerback 4.60471 1.972 -5.59645
upperback 1.20572 2.38137 -0.33479
thorax -1.54979 1.21487 2.64685
lowerneck -20.6711 4.02004 4.2175
upperneck 25.7645 5.26756 -2.34902
head 12.0984 2.56016 -0.704052
rclavicle -3.62285e-014 3.8763e-015
rhumerus -35.2484 2.87423 -86.5771
rradius 33.8414
rwrist 3.54509
rhand -9.01227 -31.8504
rfingers 7.12502
rthumb 16.9346 -61.1321
lclavicle -3.62285e-014 3.8763e-015
lhumerus -33.18 -16.7274 94.0371
lradius 31.0854
lwrist -12.3902
lhand -9.72472 -26.6028
lfingers 7.12502
lthumb 16.2487 2.73636
rfemur 9.9912 -2.48441 8.81944
rtibia 3.78025
rfoot -18.2195 -6.83636
rtoes 0.643495
lfemur 12.1703 2.52826 -12.3048
ltibia -0.391776
lfoot -14.0756 14.3251
ltoes -11.2172
6
root -28.0216 17.1433 0.657314 20.2337 82.2961 19.1495
lowerback 4.6286 1.96376 -5.68914
upperback 1.21792 2.36485 -0.395703
thorax -1.55007 1.20701 2.63633
lowerneck -20.862 3.99209 4.05613
upperneck 25.8181 5.20098 -2.10836
head 12.1419 2.54304 -0.594608
rclavicle 6.18096e-015 1.30204e-014
rhumerus -35.3908 2.81384 -86.7407
rradius 34.1114
rwrist 3.27569
rhand -8.95818 -31.8013
rfingers 7.12502
rthumb 16.9867 -61.0785
lclavicle 6.18096e-015 1.30204e-014
lhumerus -33.0917 -17.0119 93.8663
lradius 31.2946
lwrist -12.2911
lhand -8.99746 -26.9998
lfingers 7.12502
lthumb 16.9489 2.28066
rfemur 9.78096 -2.72214 8.62188
rtibia 4.09911
rfoot -18.2732 -6.62606
rtoes -0.385364
lfemur 12.1495 2.4391 -12.4348
ltibia -0.410897
lfoot -14.0918 14.4398
ltoes -11.9083
7
root -28.0201 17.1419 0.662211 21.2124 82.228 20.1643
lowerback 4.75193 1.95318 -5.86838
upperback 1.2333 2.33465 -0.454939
thorax -1.60478 1.19415 2.67351
lowerneck -20.9947 4.0029 3.95655
upperneck 25.8585 5.1892 -1.92554
head 12.1747 2.54989 -0.50884
rclavicle -7.49791e-015 -9.93923e-016
rhumerus -35.4935 2.81855 -86.925
rradius 34.3247
rwrist 3.01091
rhand -8.98858 -31.7441
rfingers 7.12502
rthumb 16.9574 -61.0239
lclavicle -7.49791e-015 -9.93923e-016
lhumerus -33.0296 -17.1772 93.6155
lradius 31.5802
lwrist -12.4954
lhand -8.93167 -27.0548
lfingers 7.12502
lthumb 17.0122 2.22021
rfemur 9.5965 -2.87093 8.38844
rtibia 4.51321
rfoot -18.4272 -6.4088
rtoes -0.371626
lfemur 12.2114 2.27261 -12.6761
ltibia -0.408531
lfoot -14.1583 14.6593
ltoes -13.3372
